:version 1.10
:name ASF
:units
  mass 1
  length 1
  angle deg
:documentation
  ASF file generated by Kaydara
:root
  axis xyz
  order  tx ty tz rx ry rz
  position 0 0 0
  orientation 0 0 0
:bonedata
  begin
    id 1
    name RightUpLegDummy
    direction -0.718183 -0.695806 0.00816078
    length 4.904
    axis 0 0 0 xyz
  end
  begin
    id 2
    name RightUpLeg
    direction 3.53373e-006 -0.995788 0.0916898
    length 17.4976
    axis -3.49089 -0.000906625 0.000286804 xyz
    dof rx ry rz
  end
  begin
    id 3
    name RightLeg
    direction 0.00371092 -0.995096 -0.0988419
    length 16.5821
    axis 3.68512 0.0193738 -0.131023 xyz
    dof rx ry rz
  end
  begin
    id 4
    name RightFoot
    direction 0.00079151 -0.46099 0.887405
    length 3.77069
    axis 4.81691e-005 -0.120479 -0.188788 xyz
    dof rx ry rz
  end
  begin
    id 5
    name RightToes
    direction 0 0 0
    length 0
    axis 0 0 0 xyz
    dof rx ry rz
  end
  begin
    id 6
    name SpineDummy
    direction 8.3039e-015 1 4.57515e-016
    length 4.6813
    axis 0 0 0 xyz
  end
  begin
    id 7
    name Spine
    direction -3.15643e-008 0.999988 0.00495137
    length 10.1015
    axis -0.001389 0.000121418 2.40972e-006 xyz
    dof rx ry rz
  end
  begin
    id 8
    name Spine1
    direction 0 0 0
    length 0
    axis -0.001389 0.000121451 1.30017e-006 xyz
    dof rx ry rz
  end
  begin
    id 9
    name HEadDummy
    direction -1.99912e-008 0.999999 0.00127422
    length 3.43865
    axis -0.001389 0.000121451 1.30017e-006 xyz
  end
  begin
    id 10
    name HEad
    direction 0 0 0
    length 0
    axis 0 0 0 xyz
    dof rx ry rz
  end
  begin
    id 11
    name LeftShoulder1Dummy
    direction 0.998891 -0.0402509 -0.0244456
    length 3.5433
    axis -0.001389 0.000121451 1.30017e-006 xyz
  end
  begin
    id 12
    name LeftShoulder1
    direction 0.99951 -0.000327763 0.0313091
    length 4.05031
    axis -0.001389 0.000121451 1.30017e-006 xyz
    dof rx ry rz
  end
  begin
    id 13
    name LeftArm
    direction 0.998561 -0.00100056 -0.0536182
    length 10.3537
    axis -23.1894 0.134784 0.967509 xyz
    dof rx ry rz
  end
  begin
    id 14
    name LeftForeArm
    direction 0.998903 0.00866432 0.046012
    length 8.70632
    axis -9.91835 -0.06569 -0.177794 xyz
    dof rx ry rz
  end
  begin
    id 15
    name LeftHand
    direction 0 0 0
    length 0
    axis 0 0 0 xyz
    dof rx ry rz
  end
  begin
    id 16
    name RightShoulderDummy
    direction -0.998891 -0.0402509 -0.0244414
    length 3.5433
    axis -0.001389 0.000121451 1.30017e-006 xyz
  end
  begin
    id 17
    name RightShoulder
    direction -0.99951 -0.000327807 0.0313133
    length 4.05031
    axis 0.215806 0.000203643 -0.0068026 xyz
    dof rx ry rz
  end
  begin
    id 18
    name RightArm
    direction -0.998573 -0.000999564 -0.053403
    length 10.3947
    axis -23.2009 -0.134239 -0.964101 xyz
    dof rx ry rz
  end
  begin
    id 19
    name RightForeArm
    direction -0.998898 0.00868028 0.0461306
    length 8.68355
    axis -9.92322 0.0658061 0.178868 xyz
    dof rx ry rz
  end
  begin
    id 20
    name RightHand
    direction 0 0 0
    length 0
    axis 0 0 0 xyz
    dof rx ry rz
  end
  begin
    id 21
    name LeftUpLegDummy
    direction 0.718183 -0.695806 0.00816078
    length 4.904
    axis 0 0 0 xyz
  end
  begin
    id 22
    name LeftUpLeg
    direction -6.81752e-006 -0.995793 0.0916337
    length 17.4976
    axis -3.48766 0.00143442 -0.000524262 xyz
    dof rx ry rz
  end
  begin
    id 23
    name LeftLeg
    direction -0.00601358 -0.995091 -0.0987824
    length 16.5821
    axis 3.68178 -0.00654042 -0.000285133 xyz
    dof rx ry rz
  end
  begin
    id 24
    name LeftFoot
    direction -0.00417578 -0.460984 0.887399
    length 3.77069
    axis 1.87233e-006 4.66016e-005 -8.6538e-006 xyz
    dof rx ry rz
  end
  begin
    id 25
    name LeftToes
    direction 0 0 0
    length 0
    axis 0 0 0 xyz
    dof rx ry rz
  end
:hierarchy
  begin
    root RightUpLegDummy SpineDummy LeftUpLegDummy
    RightUpLegDummy RightUpLeg
    RightUpLeg RightLeg
    RightLeg RightFoot
    RightFoot RightToes
    SpineDummy Spine
    Spine Spine1
    Spine1 HEadDummy LeftShoulder1Dummy RightShoulderDummy
    HEadDummy HEad
    LeftShoulder1Dummy LeftShoulder1
    LeftShoulder1 LeftArm
    LeftArm LeftForeArm
    LeftForeArm LeftHand
    RightShoulderDummy RightShoulder
    RightShoulder RightArm
    RightArm RightForeArm
    RightForeArm RightHand
    LeftUpLegDummy LeftUpLeg
    LeftUpLeg LeftLeg
    LeftLeg LeftFoot
    LeftFoot LeftToes
  end

:SAMPLES-PER-SECOND 30
:FULLY-SPECIFIED
:DEGREES
448
root  14.3145 40.6439 9.91645 163.644 84.8032 166.329
RightUpLeg  3.19999 -12.0574 -12.6726
RightLeg  5.57781 -12.7785 2.90516
RightFoot  -0.214014 -0.412463 4.15953
RightToes  0.000481921 0.542163 -0.142578
Spine  -1.88376 2.28718 3.9566
Spine1  13.0327 3.62809 -4.08927
HEad  15.0162 -14.4203 1.10194
LeftShoulder1  9.74178 -14.6581 -46.8021
LeftArm  -6.3953 10.8012 -26.8355
LeftForeArm  174.875 -55.2358 -165.967
LeftHand  -0.25398 0.0180481 5.50724
RightShoulder  2.69162 6.69022 20.0018
RightArm  3.35488 56.021 39.5658
RightForeArm  -36.7027 22.4372 7.15636
RightHand  -3.77744 13.0742 -23.8877
LeftUpLeg  1.8448 7.31122 8.45657
LeftLeg  0.79088 10.2122 -3.23123
LeftFoot  3.58002 0.720349 -5.66355
LeftToes  1.06245e-005 4.65869e-005 -8.65517e-006
449
root  14.2897 40.6443 9.91238 163.639 84.6821 166.296
RightUpLeg  3.16134 -12.0745 -12.7086
RightLeg  5.5753 -12.8822 2.89589
RightFoot  -0.181641 -0.414818 4.18058
RightToes  0.000481921 0.542163 -0.142578
Spine  -1.68885 2.65172 4.69065
Spine1  12.8506 4.1784 -4.71329
HEad  15.0546 -15.1742 1.03008
LeftShoulder1  9.91175 -14.8783 -47.0545
LeftArm  -6.04752 10.7057 -26.5103
LeftForeArm  174.656 -55.3379 -165.898
LeftHand  -0.25398 0.0180481 5.50724
RightShoulder  2.49304 6.47814 18.4662
RightArm  -6.01806 59.7135 39.1387
RightForeArm  -26.4869 12.9065 8.92685
RightHand  -3.54406 12.9146 -22.6633
LeftUpLeg  1.8086 7.29141 8.4055
LeftLeg  0.675777 10.1399 -3.27539
LeftFoot  3.67045 0.718662 -5.61644
LeftToes  1.06245e-005 4.65869e-005 -8.65517e-006
450
root  14.2663 40.6451 9.90985 163.828 84.585 166.473
RightUpLeg  3.13713 -12.0603 -12.7053
RightLeg  5.56426 -12.9924 2.87134
RightFoot  -0.146083 -0.417216 4.20335
RightToes  0.000481921 0.542163 -0.142578
Spine  -1.53415 2.96093 5.52616
Spine1  12.8223 4.72834 -5.51948
HEad  14.9329 -15.853 1.13312
LeftShoulder1  10.0002 -15.0532 -47.0263
LeftArm  -5.72951 10.5554 -26.3485
LeftForeArm  174.522 -55.5001 -165.805
LeftHand  -0.25398 0.0180481 5.50724
RightShoulder  2.3397 6.29001 17.2908
RightArm  -15.1028 63.3063 38.148
RightForeArm  -16.8654 3.65063 8.19141
RightHand  -3.13097 12.209 -20.8993
LeftUpLeg  1.75585 7.27625 8.37834
LeftLeg  0.632632 10.075 -3.28524
LeftFoot  3.73648 0.718678 -5.60028
LeftToes  1.06245e-005 4.65869e-005 -8.65517e-006
451
root  14.2449 40.646 9.90812 164.055 84.4883 166.689
RightUpLeg  3.11354 -12.0437 -12.6963
RightLeg  5.56258 -13.1015 2.84428
RightFoot  -0.118357 -0.419223 4.22146
RightToes  0.000481921 0.542163 -0.142578
Spine  -1.35638 3.23222 6.36919
Spine1  12.84 5.26846 -6.4043
HEad  14.6928 -16.5304 1.39192
LeftShoulder1  9.98469 -15.1648 -46.6636
LeftArm  -5.36356 10.3727 -26.5012
LeftForeArm  174.58 -55.7369 -165.689
LeftHand  -0.25398 0.0180481 5.50724
RightShoulder  2.2183 6.09055 16.453
RightArm  -20.0152 66.6558 36.9366
RightForeArm  -12.3907 -3.61255 5.77488
RightHand  -2.65549 11.027 -19.0834
LeftUpLeg  1.69029 7.26487 8.35599
LeftLeg  0.621853 10.0062 -3.28628
LeftFoot  3.78526 0.719289 -5.59726
LeftToes  1.06245e-005 4.65869e-005 -8.65517e-006
452
root  14.2313 40.6473 9.90611 164.36 84.3361 166.943
RightUpLeg  3.08709 -12.0283 -12.6919
RightLeg  5.53062 -13.271 2.82192
RightFoot  -0.08584 -0.421891 4.25165
RightToes  0.000481921 0.542163 -0.142578
Spine  -1.11934 3.47282 6.96094
Spine1  12.68 5.69355 -7.007
HEad  14.4765 -17.0817 1.6621
LeftShoulder1  9.97001 -15.2452 -46.3875
LeftArm  -4.96672 10.3081 -26.6139
LeftForeArm  174.705 -55.8915 -165.619
LeftHand  -0.25398 0.0180481 5.50724
RightShoulder  2.08396 5.8033 15.6561
RightArm  -25.2417 69.0579 35.7385
RightForeArm  -10.7448 -6.60338 3.90791
RightHand  -2.3025 9.78575 -17.9429
LeftUpLeg  1.59545 7.24565 8.31814
LeftLeg  0.581989 9.90396 -3.29981
LeftFoot  3.84064 0.718671 -5.5784
LeftToes  1.06245e-005 4.65869e-005 -8.65517e-006
453
root  14.2291 40.6507 9.90393 164.977 84.0861 167.452
RightUpLeg  3.07666 -11.9948 -12.6672
RightLeg  5.42396 -13.5763 2.80129
RightFoot  -0.0380751 -0.426113 4.30811
RightToes  0.000481921 0.542163 -0.142578
Spine  -0.94181 3.61498 7.16833
Spine1  12.4017 5.88923 -7.1962
HEad  14.3606 -17.3379 1.88378
LeftShoulder1  10.002 -15.2988 -46.404
LeftArm  -4.75743 10.4136 -26.4779
LeftForeArm  174.709 -55.8345 -165.649
LeftHand  -0.25398 0.0180481 5.50724
RightShoulder  1.97353 5.49144 15.1644
RightArm  -28.8272 70.1952 35.3224
RightForeArm  -13.23 -6.07385 2.94467
RightHand  -2.09402 8.84749 -17.4
LeftUpLeg  1.44871 7.20746 8.26924
LeftLeg  0.510865 9.72667 -3.31077
LeftFoot  3.90994 0.717514 -5.55397
LeftToes  1.06245e-005 4.65869e-005 -8.65517e-006
454
root  14.2371 40.6536 9.90142 165.704 83.798 168.062
RightUpLeg  3.093 -11.9623 -12.638
RightLeg  5.30512 -13.9239 2.78578
RightFoot  -0.00898874 -0.430968 4.37538
RightToes  0.000481921 0.542163 -0.142578
Spine  -0.958335 3.61555 7.07658
Spine1  12.2963 5.8597 -7.10973
HEad  14.3396 -17.2053 2.02851
LeftShoulder1  10.0227 -15.3013 -46.4965
LeftArm  -4.9179 10.6151 -26.3444
LeftForeArm  174.581 -55.6683 -165.724
LeftHand  -0.25398 0.0180481 5.50724
RightShoulder  1.94397 5.30648 15.2992
RightArm  -30.4128 70.6143 35.2875
RightForeArm  -16.0334 -5.94051 2.53659
RightHand  -1.92627 8.32348 -16.6362
LeftUpLeg  1.29968 7.15734 8.22139
LeftLeg  0.443432 9.51162 -3.30442
LeftFoot  3.9692 0.717467 -5.54919
LeftToes  1.06245e-005 4.65869e-005 -8.65517e-006
455
root  14.2514 40.6542 9.89739 166.083 83.5891 168.388
RightUpLeg  3.12788 -11.9701 -12.6533
RightLeg  5.27839 -14.1267 2.7816
RightFoot  -0.0305075 -0.434802 4.42724
RightToes  0.000481921 0.542163 -0.142578
Spine  -1.08893 3.53957 6.87212
Spine1  12.4083 5.7256 -6.9118
HEad  14.3972 -16.7285 2.05516
LeftShoulder1  10.0096 -15.2787 -46.4914
LeftArm  -5.30848 10.87 -26.401
LeftForeArm  174.443 -55.612 -165.742
LeftHand  -0.25398 0.0180481 5.50724
RightShoulder  1.95612 5.26056 15.5767
RightArm  -30.7825 70.9851 35.0905
RightForeArm  -15.0749 -5.94251 2.42144
RightHand  -1.72547 7.99062 -15.3256
LeftUpLeg  1.23602 7.11528 8.17859
LeftLeg  0.40151 9.35951 -3.29115
LeftFoot  3.99395 0.718042 -5.55596
LeftToes  1.06245e-005 4.65869e-005 -8.65517e-006
456
root  14.2674 40.6547 9.89141 166.076 83.5016 168.401
RightUpLeg  3.18018 -11.9975 -12.7021
RightLeg  5.32603 -14.1659 2.77524
RightFoot  -0.0688503 -0.437081 4.45551
RightToes  0.000481921 0.542163 -0.142578
Spine  -1.13306 3.47912 6.72519
Spine1  12.4832 5.6153 -6.74132
HEad  14.4753 -16.1147 2.05462
LeftShoulder1  10.0141 -15.2928 -46.4769
LeftArm  -5.60603 11.1516 -26.4362
LeftForeArm  174.359 -55.7344 -165.673
LeftHand  -0.25398 0.0180481 5.50724
RightShoulder  1.93225 5.22268 15.3832
RightArm  -30.4869 71.3817 35.0996
RightForeArm  -11.9211 -6.00144 2.35511
RightHand  -1.61815 7.91805 -14.4863
LeftUpLeg  1.27173 7.09331 8.14742
LeftLeg  0.389226 9.30572 -3.28382
LeftFoot  3.98898 0.717658 -5.54906
LeftToes  1.06245e-005 4.65869e-005 -8.65517e-006
457
root  14.284 40.6552 9.88508 165.961 83.5008 168.338
RightUpLeg  3.25489 -11.983 -12.7204
RightLeg  5.33739 -14.1678 2.74454
RightFoot  -0.0726255 -0.437965 4.46272
RightToes  0.000481921 0.542163 -0.142578
Spine  -1.06227 3.45606 6.70977
Spine1  12.4261 5.58247 -6.71677
HEad  14.4697 -15.6005 2.20633
LeftShoulder1  10.048 -15.3388 -46.5218
LeftArm  -5.67592 11.3286 -26.2563
LeftForeArm  174.293 -55.9086 -165.577
LeftHand  -0.25398 0.0180481 5.50724
RightShoulder  1.88682 5.16143 14.9813
RightArm  -29.876 71.5553 35.593
RightForeArm  -10.5971 -6.0312 2.37074
RightHand  -1.66317 8.07096 -14.7103
LeftUpLeg  1.35443 7.08951 8.13893
LeftLeg  0.392374 9.30869 -3.28723
LeftFoot  3.97652 0.716297 -5.52773
LeftToes  1.06245e-005 4.65869e-005 -8.65517e-006
458
root  14.3034 40.6561 9.88 165.754 83.58 168.172
RightUpLeg  3.32368 -11.9258 -12.6985
RightLeg  5.29003 -14.1472 2.69479
RightFoot  -0.0560173 -0.437836 4.45489
RightToes  0.000481921 0.542163 -0.142578
Spine  -1.02302 3.45944 6.76433
Spine1  12.4104 5.61397 -6.81161
HEad  14.3634 -15.285 2.5154
LeftShoulder1  10.0612 -15.3534 -46.5472
LeftArm  -5.62768 11.2692 -26.011
LeftForeArm  174.222 -56.0053 -165.521
LeftHand  -0.25398 0.0180481 5.50724
RightShoulder  1.89032 5.18566 14.9583
RightArm  -29.6021 71.5099 35.9969
RightForeArm  -11.5079 -6.02064 2.41764
RightHand  -1.70994 8.05212 -15.1276
LeftUpLeg  1.45514 7.09904 8.14896
LeftLeg  0.379555 9.36763 -3.29849
LeftFoot  3.9676 0.714961 -5.50709
LeftToes  1.06245e-005 4.65869e-005 -8.65517e-006
